<svg width="912" height="189" viewBox="0 0 912 189" fill="none" xmlns="http://www.w3.org/2000/svg">
<g id="Group 5">
<g id="Vector 2">
<path d="M101.168 11.8142L1.37083 166.045C-2.71008 174.521 2.85482 181.335 11.0167 182H63.6254C67.7908 181.925 69.2759 181.15 70.2868 178.352C72.0794 173.776 75.3222 165.866 78.352 160.394C104.74 112.736 150.008 100.972 166.02 93.3519C169.344 91.0809 169.605 89.4751 167.133 86.0012L118.976 11.8142C115.637 7.32687 105.806 6.16349 101.168 11.8142Z" fill="url(#paint0_linear_15_22)"/>
<path d="M218.773 166.045C221.927 172.028 219.144 182 208.756 182H101.838C99.3557 181.819 98.7924 181.23 99.7559 179.017C118.218 145.537 144.257 126.204 179.932 116.755C184.76 115.143 186.613 115.907 188.762 119.518L218.773 166.045Z" fill="url(#paint1_linear_15_22)"/>
</g>
<g id="Andr&#195;&#169;Junior">
<path d="M249.36 136L280.56 53.44H293.52L324.6 136H313.92L305.4 113.44H268.32L259.8 136H249.36ZM271.44 104.44H302.28L287.16 64H286.56L271.44 104.44ZM338.351 136V74.8H347.231L347.591 83.56H348.311C349.191 81.64 350.391 79.96 351.911 78.52C353.511 77.08 355.631 75.96 358.271 75.16C360.991 74.28 364.431 73.84 368.591 73.84C373.151 73.84 376.791 74.32 379.511 75.28C382.231 76.24 384.311 77.68 385.751 79.6C387.271 81.52 388.271 84 388.751 87.04C389.231 90 389.471 93.56 389.471 97.72V136H379.751V101.08C379.751 96.92 379.551 93.64 379.151 91.24C378.831 88.76 378.151 86.92 377.111 85.72C376.071 84.44 374.551 83.6 372.551 83.2C370.551 82.8 367.911 82.6 364.631 82.6C360.711 82.6 357.631 83.12 355.391 84.16C353.151 85.12 351.511 86.56 350.471 88.48C349.431 90.32 348.791 92.6 348.551 95.32C348.311 97.96 348.191 101 348.191 104.44V136H338.351ZM430.227 136.96C425.827 136.96 422.147 136.48 419.187 135.52C416.307 134.56 414.027 132.92 412.347 130.6C410.667 128.2 409.467 124.96 408.747 120.88C408.027 116.8 407.667 111.68 407.667 105.52C407.667 99.28 407.987 94.12 408.627 90.04C409.347 85.88 410.547 82.64 412.227 80.32C413.907 78 416.187 76.36 419.067 75.4C421.947 74.36 425.587 73.84 429.987 73.84C433.267 73.84 436.187 74.12 438.747 74.68C441.307 75.16 443.507 76.04 445.347 77.32C447.267 78.6 448.787 80.36 449.907 82.6H450.507V46.84H460.347V136H451.587L451.107 127.24H450.387C449.267 130.04 447.627 132.16 445.467 133.6C443.387 134.96 441.027 135.84 438.387 136.24C435.747 136.72 433.027 136.96 430.227 136.96ZM434.067 128.32C438.147 128.32 441.387 127.76 443.787 126.64C446.187 125.52 447.867 123.76 448.827 121.36C449.627 119.12 450.107 116.68 450.267 114.04C450.427 111.4 450.507 108.28 450.507 104.68C450.507 101.72 450.427 99.04 450.267 96.64C450.107 94.16 449.667 92 448.947 90.16C447.907 87.44 446.187 85.52 443.787 84.4C441.387 83.2 438.067 82.6 433.827 82.6C430.227 82.6 427.347 82.84 425.187 83.32C423.027 83.8 421.387 84.84 420.267 86.44C419.147 87.96 418.387 90.24 417.987 93.28C417.587 96.24 417.387 100.28 417.387 105.4C417.387 110.52 417.587 114.6 417.987 117.64C418.387 120.68 419.147 122.96 420.267 124.48C421.387 126 423.027 127.04 425.187 127.6C427.427 128.08 430.387 128.32 434.067 128.32ZM480.968 136V74.8H489.728L490.208 86.56H490.928C491.968 83.12 493.448 80.48 495.368 78.64C497.288 76.8 499.608 75.56 502.328 74.92C505.048 74.2 508.048 73.84 511.328 73.84V83.44C505.808 83.44 501.568 84.32 498.608 86.08C495.648 87.84 493.608 90.56 492.488 94.24C491.368 97.92 490.808 102.56 490.808 108.16V136H480.968ZM549.405 136.96C544.445 136.96 540.285 136.64 536.925 136C533.645 135.36 531.005 134.32 529.005 132.88C527.005 131.36 525.485 129.4 524.445 127C523.405 124.52 522.725 121.52 522.405 118C522.085 114.48 521.925 110.32 521.925 105.52C521.925 99.84 522.165 95 522.645 91C523.125 86.92 524.205 83.64 525.885 81.16C527.645 78.6 530.365 76.76 534.045 75.64C537.725 74.44 542.685 73.84 548.925 73.84C553.645 73.84 557.485 74.2 560.445 74.92C563.485 75.64 565.885 76.76 567.645 78.28C569.405 79.8 570.685 81.84 571.485 84.4C572.365 86.88 572.925 89.88 573.165 93.4C573.405 96.84 573.525 100.84 573.525 105.4V108.64H531.645C531.645 112.8 531.845 116.2 532.245 118.84C532.645 121.48 533.445 123.52 534.645 124.96C535.925 126.4 537.885 127.4 540.525 127.96C543.245 128.52 546.925 128.8 551.565 128.8C553.485 128.8 555.605 128.76 557.925 128.68C560.245 128.52 562.565 128.32 564.885 128.08C567.205 127.84 569.285 127.6 571.125 127.36V135.28C569.445 135.6 567.365 135.88 564.885 136.12C562.485 136.36 559.925 136.56 557.205 136.72C554.565 136.88 551.965 136.96 549.405 136.96ZM564.045 103.72V100.48C564.045 96.32 563.805 93.04 563.325 90.64C562.845 88.16 562.005 86.32 560.805 85.12C559.685 83.84 558.125 83 556.125 82.6C554.125 82.2 551.645 82 548.685 82C544.845 82 541.805 82.28 539.565 82.84C537.325 83.32 535.645 84.24 534.525 85.6C533.405 86.96 532.645 88.92 532.245 91.48C531.845 94.04 531.645 97.44 531.645 101.68H566.325L564.045 103.72ZM539.205 64.6V64L551.325 47.8H561.885V48.4L546.405 64.6H539.205Z" fill="#F1EFFD"/>
<path d="M585.116 136V127.48C589.436 127.4 592.756 127.16 595.076 126.76C597.396 126.36 599.076 125.52 600.116 124.24C601.156 122.88 601.756 120.76 601.916 117.88C602.156 114.92 602.276 110.84 602.276 105.64V53.44H612.596V102.4C612.596 108.8 612.476 114.12 612.236 118.36C611.996 122.52 611.436 125.8 610.556 128.2C609.676 130.52 608.236 132.24 606.236 133.36C604.316 134.48 601.636 135.2 598.196 135.52C594.836 135.84 590.476 136 585.116 136ZM655.013 136.96C650.533 136.96 646.893 136.48 644.093 135.52C641.373 134.56 639.293 133.12 637.853 131.2C636.413 129.28 635.413 126.84 634.853 123.88C634.373 120.84 634.133 117.24 634.133 113.08V74.8H643.973V109.72C643.973 113.8 644.133 117.08 644.453 119.56C644.773 122.04 645.453 123.92 646.493 125.2C647.613 126.4 649.173 127.2 651.173 127.6C653.173 128 655.773 128.2 658.973 128.2C662.973 128.2 666.093 127.72 668.333 126.76C670.573 125.72 672.173 124.28 673.133 122.44C674.173 120.52 674.813 118.24 675.053 115.6C675.373 112.88 675.533 109.8 675.533 106.36V74.8H685.253V136H676.493L676.133 127.24H675.293C674.493 129.16 673.293 130.84 671.693 132.28C670.173 133.72 668.053 134.88 665.333 135.76C662.613 136.56 659.173 136.96 655.013 136.96ZM705.968 136V74.8H714.848L715.208 83.56H715.928C716.808 81.64 718.008 79.96 719.528 78.52C721.128 77.08 723.248 75.96 725.888 75.16C728.608 74.28 732.048 73.84 736.208 73.84C740.768 73.84 744.408 74.32 747.128 75.28C749.848 76.24 751.928 77.68 753.368 79.6C754.888 81.52 755.888 84 756.368 87.04C756.848 90 757.088 93.56 757.088 97.72V136H747.368V101.08C747.368 96.92 747.168 93.64 746.768 91.24C746.448 88.76 745.768 86.92 744.728 85.72C743.688 84.44 742.168 83.6 740.168 83.2C738.168 82.8 735.528 82.6 732.248 82.6C728.328 82.6 725.248 83.12 723.008 84.16C720.768 85.12 719.128 86.56 718.088 88.48C717.048 90.32 716.408 92.6 716.168 95.32C715.928 97.96 715.808 101 715.808 104.44V136H705.968ZM777.564 57.52V46.84H788.004V57.52H777.564ZM777.804 136V74.8H787.644V136H777.804ZM832.513 136.96C827.473 136.96 823.273 136.64 819.913 136C816.633 135.44 814.033 134.48 812.113 133.12C810.193 131.76 808.753 129.88 807.793 127.48C806.913 125.08 806.353 122.08 806.113 118.48C805.873 114.8 805.753 110.44 805.753 105.4C805.753 100.36 805.873 96.04 806.113 92.44C806.353 88.76 806.913 85.72 807.793 83.32C808.753 80.92 810.193 79.04 812.113 77.68C814.033 76.32 816.633 75.36 819.913 74.8C823.273 74.16 827.473 73.84 832.513 73.84C837.633 73.84 841.833 74.16 845.113 74.8C848.393 75.36 850.993 76.32 852.913 77.68C854.913 79.04 856.353 80.92 857.233 83.32C858.193 85.72 858.793 88.76 859.033 92.44C859.273 96.04 859.393 100.36 859.393 105.4C859.393 110.44 859.273 114.8 859.033 118.48C858.793 122.08 858.193 125.08 857.233 127.48C856.353 129.88 854.913 131.76 852.913 133.12C850.993 134.48 848.393 135.44 845.113 136C841.833 136.64 837.633 136.96 832.513 136.96ZM832.513 128.68C836.833 128.68 840.153 128.4 842.473 127.84C844.793 127.28 846.433 126.2 847.393 124.6C848.433 123 849.033 120.68 849.193 117.64C849.433 114.52 849.553 110.44 849.553 105.4C849.553 100.36 849.433 96.32 849.193 93.28C849.033 90.16 848.433 87.8 847.393 86.2C846.433 84.6 844.793 83.52 842.473 82.96C840.153 82.4 836.833 82.12 832.513 82.12C828.273 82.12 824.953 82.4 822.553 82.96C820.233 83.52 818.593 84.6 817.633 86.2C816.673 87.8 816.073 90.16 815.833 93.28C815.593 96.32 815.473 100.36 815.473 105.4C815.473 110.44 815.593 114.52 815.833 117.64C816.073 120.68 816.673 123 817.633 124.6C818.593 126.2 820.233 127.28 822.553 127.84C824.953 128.4 828.273 128.68 832.513 128.68ZM877.531 136V74.8H886.291L886.771 86.56H887.491C888.531 83.12 890.011 80.48 891.931 78.64C893.851 76.8 896.171 75.56 898.891 74.92C901.611 74.2 904.611 73.84 907.891 73.84V83.44C902.371 83.44 898.131 84.32 895.171 86.08C892.211 87.84 890.171 90.56 889.051 94.24C887.931 97.92 887.371 102.56 887.371 108.16V136H877.531Z" fill="url(#paint2_linear_15_22)"/>
</g>
</g>
<defs>
<linearGradient id="paint0_linear_15_22" x1="168.617" y1="53.1802" x2="6.74906" y2="188.255" gradientUnits="userSpaceOnUse">
<stop stop-color="#6B58E9"/>
<stop offset="1" stop-color="#784BCE"/>
</linearGradient>
<linearGradient id="paint1_linear_15_22" x1="168.617" y1="53.1802" x2="6.74906" y2="188.255" gradientUnits="userSpaceOnUse">
<stop stop-color="#6B58E9"/>
<stop offset="1" stop-color="#784BCE"/>
</linearGradient>
<linearGradient id="paint2_linear_15_22" x1="874.451" y1="34" x2="577.516" y2="186.103" gradientUnits="userSpaceOnUse">
<stop stop-color="#6B58E9"/>
<stop offset="1" stop-color="#784CD0"/>
</linearGradient>
</defs>
</svg>
